<svg xmlns="http://www.w3.org/2000/svg" version="1.1" xmlns:xlink="http://www.w3.org/1999/xlink" xmlns:svgjs="http://svgjs.dev/svgjs" width="1500" height="515" viewBox="0 0 1500 515"><g transform="matrix(1,0,0,1,-0.9090909090909918,-0.6599624609270336)"><svg viewBox="0 0 396 136" data-background-color="#ffffff" preserveAspectRatio="xMidYMid meet" height="515" width="1500" xmlns="http://www.w3.org/2000/svg" xmlns:xlink="http://www.w3.org/1999/xlink"><g id="tight-bounds" transform="matrix(1,0,0,1,0.2400000000000091,0.1742813489049979)"><svg viewBox="0 0 395.52 135.65143730218998" height="135.65143730218998" width="395.52"><g><svg viewBox="0 0 397.4976 136.3296944887009" height="135.65143730218998" width="395.52"><g><rect width="397.4976" height="4.175598482785952" x="0" y="74.92080696783734" fill="#dedede" opacity="1" stroke-width="0" stroke="transparent" fill-opacity="1" class="rect-yte-0" data-fill-palette-color="secondary" rx="1%" id="yte-0" data-palette-color="#dedede"></rect></g><g transform="matrix(1,0,0,1,0.9887999999999693,90.02729153121479)"><svg viewBox="0 0 395.52000000000004 46.30240295748614" height="46.30240295748614" width="395.52000000000004"><g id="textblocktransform"><svg viewBox="0 0 395.52000000000004 46.30240295748614" height="46.30240295748614" width="395.52000000000004" id="textblock"><g><svg viewBox="0 0 395.52000000000004 46.30240295748614" height="46.30240295748614" width="395.52000000000004"><g transform="matrix(1,0,0,1,0,0)"><svg width="395.52000000000004" viewBox="0.3 -37.5 324.57 38" height="46.30240295748614" data-palette-color="#000000"><path d="M18.05-0.95L21.6-0.95 17.95-11.75 8.05-11.75 4.2-0.95 7.95-0.95 7.95 0 0.3 0 0.3-0.95 2.65-0.95 15.4-35.3 19.5-35.3 32.1-0.95 34.4-0.95 34.4 0 18.05 0 18.05-0.95ZM17.55-12.85L13.2-25.95 8.5-12.85 17.55-12.85ZM36.95 0.5L36.35 0.5 36.35-8.45 36.95-8.45Q38.25-4.1 40.45-2.35 42.65-0.6 45.95-0.6L45.95-0.6Q51.05-0.6 51.05-3.85L51.05-3.85Q51.05-5.25 49.8-5.95L49.8-5.95Q47.85-7.05 44.8-7.65L44.8-7.65Q41.4-8.55 39.1-10.05L39.1-10.05Q36.35-11.85 36.35-15.75 36.35-19.65 38.75-21.98 41.15-24.3 45.15-24.3L45.15-24.3Q47.6-24.3 50.2-23.15L50.2-23.15Q51.15-22.75 51.65-22.75 52.15-22.75 52.5-23.1 52.85-23.45 53.35-24.4L53.35-24.4 53.9-24.4 53.9-16.75 53.3-16.75Q50.75-23.25 45.4-23.25L45.4-23.25Q43.05-23.25 41.9-22.43 40.75-21.6 40.75-20.35L40.75-20.35Q40.75-19.6 41.1-19.18 41.45-18.75 41.65-18.55 41.85-18.35 42.3-18.13 42.75-17.9 43.05-17.78 43.35-17.65 43.97-17.45 44.6-17.25 44.9-17.2L44.9-17.2Q48.3-16.35 49.8-15.73 51.3-15.1 52.65-14.2L52.65-14.2Q55.4-12.3 55.4-8.08 55.4-3.85 52.9-1.68 50.4 0.5 46.05 0.5L46.05 0.5Q42.95 0.5 40.05-0.95L40.05-0.95Q39.45-1.35 39.1-1.35L39.1-1.35Q38-1.35 36.95 0.5L36.95 0.5ZM56.9-36.6L56.9-37.5 68.95-37.5 68.95-19.2Q69.75-21.5 71.4-22.9 73.05-24.3 76.4-24.3L76.4-24.3Q84.15-24.3 84.15-15.95L84.15-15.95 84.15-0.9 86.95-0.9 86.95 0 72.8 0 72.8-0.9 74.85-0.9 74.85-17.15Q74.85-20.15 74.45-21.03 74.05-21.9 73-21.9L73-21.9Q71.4-21.9 70.17-19.8 68.95-17.7 68.95-14.7L68.95-14.7 68.95-0.9 71.1-0.9 71.1 0 56.9 0 56.9-0.9 59.65-0.9 59.65-36.6 56.9-36.6ZM95.04-27.25Q92.39-27.25 91.27-28.6 90.14-29.95 90.14-31.95 90.14-33.95 91.37-35.25 92.59-36.55 95.09-36.55 97.59-36.55 98.89-35.38 100.19-34.2 100.19-32.02 100.19-29.85 98.94-28.55 97.69-27.25 95.04-27.25ZM87.49-22.9L87.49-23.8 99.74-23.8 99.74-0.9 102.54-0.9 102.54 0 87.69 0 87.69-0.9 90.44-0.9 90.44-22.9 87.49-22.9ZM105.29 0.5L104.69 0.5 104.69-8.45 105.29-8.45Q106.59-4.1 108.79-2.35 110.99-0.6 114.29-0.6L114.29-0.6Q119.39-0.6 119.39-3.85L119.39-3.85Q119.39-5.25 118.14-5.95L118.14-5.95Q116.19-7.05 113.14-7.65L113.14-7.65Q109.74-8.55 107.44-10.05L107.44-10.05Q104.69-11.85 104.69-15.75 104.69-19.65 107.09-21.98 109.49-24.3 113.49-24.3L113.49-24.3Q115.94-24.3 118.54-23.15L118.54-23.15Q119.49-22.75 119.99-22.75 120.49-22.75 120.84-23.1 121.19-23.45 121.69-24.4L121.69-24.4 122.24-24.4 122.24-16.75 121.64-16.75Q119.09-23.25 113.74-23.25L113.74-23.25Q111.39-23.25 110.24-22.43 109.09-21.6 109.09-20.35L109.09-20.35Q109.09-19.6 109.44-19.18 109.79-18.75 109.99-18.55 110.19-18.35 110.64-18.13 111.09-17.9 111.39-17.78 111.69-17.65 112.32-17.45 112.94-17.25 113.24-17.2L113.24-17.2Q116.64-16.35 118.14-15.73 119.64-15.1 120.99-14.2L120.99-14.2Q123.74-12.3 123.74-8.08 123.74-3.85 121.24-1.68 118.74 0.5 114.39 0.5L114.39 0.5Q111.29 0.5 108.39-0.95L108.39-0.95Q107.79-1.35 107.44-1.35L107.44-1.35Q106.34-1.35 105.29 0.5L105.29 0.5ZM125.24-36.6L125.24-37.5 137.29-37.5 137.29-19.2Q138.09-21.5 139.74-22.9 141.39-24.3 144.74-24.3L144.74-24.3Q152.49-24.3 152.49-15.95L152.49-15.95 152.49-0.9 155.29-0.9 155.29 0 141.14 0 141.14-0.9 143.19-0.9 143.19-17.15Q143.19-20.15 142.79-21.03 142.39-21.9 141.34-21.9L141.34-21.9Q139.74-21.9 138.51-19.8 137.29-17.7 137.29-14.7L137.29-14.7 137.29-0.9 139.44-0.9 139.44 0 125.24 0 125.24-0.9 127.99-0.9 127.99-36.6 125.24-36.6ZM165.78-34.05L165.78-35 181.03-35 181.03-34.05 178.28-34.05 178.28-18.25 178.68-18.35 192.78-34.05 188.83-34.05 188.83-35 197.58-35 197.58-34.05 194.58-34.05 185.98-24.45 197.98-0.95 200.68-0.95 200.68 0 184.63 0 184.63-0.95 186.98-0.95 178.73-16.9 178.28-16.8 178.28-0.95 181.03-0.95 181.03 0 165.78 0 165.78-0.95 168.53-0.95 168.53-34.05 165.78-34.05ZM227.98-0.9L227.98 0 216.58 0 216.03-3.65Q215.23-1.65 213.66-0.58 212.08 0.5 208.98 0.5L208.98 0.5Q201.23 0.5 201.23-7.85L201.23-7.85 201.23-22.9 198.43-22.9 198.43-23.8 210.53-23.8 210.53-6.65Q210.53-3.65 210.96-2.7 211.38-1.75 212.66-1.75 213.93-1.75 214.93-3.3 215.93-4.85 215.93-7.6L215.93-7.6 215.93-22.9 213.63-22.9 213.63-23.8 225.23-23.8 225.23-0.9 227.98-0.9ZM228.98-22.9L228.98-23.8 241.03-23.8 241.03-19.2Q242.68-24.3 248.3-24.3 253.93-24.3 255.13-18.9L255.13-18.9Q256.88-24.3 262.48-24.3L262.48-24.3Q269.83-24.3 269.83-15.95L269.83-15.95 269.83-0.9 272.63-0.9 272.63 0 258.78 0 258.78-0.9 260.53-0.9 260.53-17.15Q260.53-20.95 259.88-21.6L259.88-21.6Q259.58-21.9 259.08-21.9L259.08-21.9Q257.63-21.9 256.53-19.95 255.43-18 255.43-15L255.43-15 255.43-0.9 257.23-0.9 257.23 0 244.38 0 244.38-0.9 246.13-0.9 246.13-17.15Q246.13-20.95 245.48-21.6L245.48-21.6Q245.18-21.9 244.68-21.9L244.68-21.9Q243.28-21.9 242.15-19.78 241.03-17.65 241.03-14.7L241.03-14.7 241.03-0.9 242.83-0.9 242.83 0 228.98 0 228.98-0.9 231.73-0.9 231.73-22.9 228.98-22.9ZM285.38-11.75L285.38-11.75 286.83-11.75 286.83-15.6Q286.83-20.35 286.3-21.98 285.78-23.6 284.28-23.6L284.28-23.6Q283.38-23.6 282.65-23.13 281.93-22.65 281.93-21.83 281.93-21 282.23-20.15L282.23-20.15 283.48-20.15Q283.88-19.1 283.88-17.63 283.88-16.15 282.63-15.08 281.38-14 279.48-14L279.48-14Q275.18-14 275.18-18.15L275.18-18.15Q275.18-24.3 285.63-24.3L285.63-24.3Q291.58-24.3 293.85-22.28 296.13-20.25 296.13-14.85L296.13-14.85 296.13-4.7Q296.13-2.1 297.58-2.1L297.58-2.1Q299.28-2.1 299.58-7.25L299.58-7.25 300.33-7.2Q300.13-2.8 298.68-1.15 297.23 0.5 293.93 0.5L293.93 0.5Q287.93 0.5 287.03-3.2L287.03-3.2Q286.38-1.3 285.08-0.4 283.78 0.5 281.28 0.5L281.28 0.5Q273.88 0.5 273.88-5.55L273.88-5.55Q273.88-9.1 276.7-10.43 279.53-11.75 285.38-11.75ZM283.38-5.6Q283.38-3 283.65-2.25 283.93-1.5 284.7-1.5 285.48-1.5 286.15-2.78 286.83-4.05 286.83-6.3L286.83-6.3 286.83-10.95 286.48-10.95Q283.38-10.95 283.38-6.4L283.38-6.4 283.38-5.6ZM317.52-22.4L317.52-22.4Q315.67-22.4 314.27-20 312.87-17.6 312.87-14.3L312.87-14.3 312.87-0.9 316.42-0.9 316.42 0 300.82 0 300.82-0.9 303.57-0.9 303.57-22.9 300.82-22.9 300.82-23.8 312.87-23.8 312.87-19Q313.52-21.55 315.37-22.93 317.22-24.3 319.57-24.3 321.92-24.3 323.4-22.98 324.87-21.65 324.87-19.23 324.87-16.8 323.77-15.5 322.67-14.2 320.4-14.2 318.12-14.2 317.05-15.7 315.97-17.2 316.77-19.85L316.77-19.85 318.57-19.85Q319.82-22.4 317.52-22.4Z" opacity="1" transform="matrix(1,0,0,1,0,0)" fill="#000000" class="wordmark-text-0" data-fill-palette-color="primary" id="text-0"></path></svg></g></svg></g></svg></g></svg></g><g transform="matrix(1,0,0,1,165.76268976394198,0)"><svg viewBox="0 0 65.97222047211599 63.989920887245844" height="63.989920887245844" width="65.97222047211599"><g><svg xmlns="http://www.w3.org/2000/svg" xmlns:xlink="http://www.w3.org/1999/xlink" version="1.1" x="8.000000000000004" y="0" viewBox="24.628757868756324 16 51.54248426248735 66.00065914879734" style="enable-background:new 0 0 100 100;" xml:space="preserve" height="63.989920887245844" width="49.972220472115986" class="icon-icon-0" data-fill-palette-color="accent" id="icon-0"><g fill="#dedede" data-fill-palette-color="accent"><g fill="#dedede" data-fill-palette-color="accent"><path d="M34.5 31.6C34.5 40.1 41.4 47 50 47S65.5 40.1 65.5 31.5 58.6 16 50 16 34.5 23 34.5 31.6M64.5 31.6C64.5 39.6 58 46 50 46S35.5 39.5 35.5 31.5 42 17.1 50 17.1 64.5 23.6 64.5 31.6" fill="#dedede" data-fill-palette-color="accent"></path></g><g fill="#dedede" data-fill-palette-color="accent"><path d="M73.8 62.9C68 55.2 59.6 50.4 50.4 50.4 41.1 50.4 32.8 55.2 27 62.9 21.1 70.8 26.9 82 36.8 82H64C73.9 82.1 79.7 70.8 73.8 62.9M64 81.1H36.8C32.6 81.1 28.7 78.7 26.8 74.9S25.3 66.9 27.8 63.6C33.6 55.9 41.8 51.5 50.4 51.5 58.9 51.5 67.2 55.9 73 63.6 75.5 66.9 75.9 71.2 74 74.9 72.1 78.7 68.3 81.1 64 81.1" fill="#dedede" data-fill-palette-color="accent"></path></g></g></svg></g></svg></g><g><rect width="89.229569763942" height="4.175598482785952" y="58.814322404459894" x="231.73491023605797" fill="#dedede" data-fill-palette-color="secondary"></rect><rect width="89.229569763942" height="4.175598482785952" y="58.814322404459894" x="76.53312" fill="#dedede" data-fill-palette-color="secondary"></rect></g></svg></g><defs></defs></svg><rect width="395.52" height="135.65143730218998" fill="none" stroke="none" visibility="hidden"></rect></g></svg></g></svg>